<svg xmlns="http://www.w3.org/2000/svg" viewBox="0 0 512 512" role="img" aria-label="CopaScape">
  <defs>
    <linearGradient id="bg" x1="0" x2="1" y1="0" y2="1">
      <stop offset="0" stop-color="#0A4FFF"/>
      <stop offset="0.58" stop-color="#061126"/>
      <stop offset="1" stop-color="#020814"/>
    </linearGradient>
    <linearGradient id="gold" x1="0.15" x2="0.9" y1="0" y2="1">
      <stop offset="0" stop-color="#FFF4A3"/>
      <stop offset="0.4" stop-color="#FFD700"/>
      <stop offset="1" stop-color="#C87900"/>
    </linearGradient>
    <filter id="glow" x="-40%" y="-40%" width="180%" height="180%">
      <feGaussianBlur stdDeviation="12" result="blur"/>
      <feMerge>
        <feMergeNode in="blur"/>
        <feMergeNode in="SourceGraphic"/>
      </feMerge>
    </filter>
  </defs>
  <rect width="512" height="512" rx="112" fill="url(#bg)"/>
  <path d="M66 350c70 34 134 48 190 48s120-14 190-48v44c-61 35-124 52-190 52S127 429 66 394z" fill="#00C853" opacity="0.9"/>
  <path d="M86 344h340" stroke="#FFFFFF" stroke-width="16" stroke-linecap="round" opacity="0.82"/>
  <path d="M176 102h160v44c0 58-30 102-68 116v49h50v34H194v-34h50v-49c-38-14-68-58-68-116z" fill="url(#gold)" filter="url(#glow)"/>
  <path d="M176 128h-42c-5 45 14 82 56 96" fill="none" stroke="#FFD700" stroke-width="24" stroke-linecap="round"/>
  <path d="M336 128h42c5 45-14 82-56 96" fill="none" stroke="#FFD700" stroke-width="24" stroke-linecap="round"/>
  <circle cx="256" cy="160" r="38" fill="#FFFFFF" opacity="0.2"/>
  <text x="256" y="286" fill="#061126" font-family="Arial, sans-serif" font-size="62" font-weight="900" text-anchor="middle">CS</text>
</svg>
